<?xml version="1.0" encoding="iso-8859-1"?>
<!-- Generator: Adobe Illustrator 19.0.0, SVG Export Plug-In . SVG Version: 6.00 Build 0)  -->
<svg version="1.1" id="Layer_1" xmlns="http://www.w3.org/2000/svg" xmlns:xlink="http://www.w3.org/1999/xlink" x="0px" y="0px"
	 viewBox="0 0 478.47 478.47" style="enable-background:new 0 0 478.47 478.47;" xml:space="preserve">
<g>
	<path style="fill:#F7B239;" d="M50.99,216.35c8.84,0,16,7.16,16,16s-7.16,16-16,16c-8.83,0-16-7.16-16-16
		C34.99,223.51,42.16,216.35,50.99,216.35"/>
	<path style="fill:#F7B239;" d="M427.47,216.35c8.84,0,16,7.16,16,16s-7.16,16-16,16c-8.83,0-16-7.16-16-16
		S418.64,216.35,427.47,216.35z"/>
	<polyline style="fill:#F7B239;" points="433.47,320.69 433.47,348.27 407.33,348.27 376.45,348.27 102.02,348.27 71.13,348.27 
		44.99,348.27 44.99,320.69 95.99,320.69 382.48,320.69 433.47,320.69 	"/>
	<path style="fill:#C67934;" d="M412.48,124.58v65.18c-17.48,6.17-30,22.84-30,42.43v52.24c0-13.11-10.63-23.74-23.75-23.74h-239
		c-13.11,0-23.74,10.63-23.74,23.74v-52.24c0-19.59-12.52-36.26-30-42.43v-65.18c0-16.78,13.6-30.38,30.38-30.38H382.1
		C398.88,94.2,412.48,107.8,412.48,124.58"/>
	<path style="fill:#855A34;" d="M120.37,94.2h-24c-16.78,0-30.38,13.6-30.38,30.38v65.18l0,0
		c13.055,4.608,23.342,15.072,27.715,28.235c-1.696-44.031-3.715-93.415-3.715-93.415C89.99,107.8,103.59,94.2,120.37,94.2"/>
	<path style="fill:#A17A36;" d="M62.498,221.232c-0.813,8.004-1.609,16.495-2.188,24.127c4.046-2.903,6.68-7.647,6.68-13.009
		C66.99,228.029,65.279,224.11,62.498,221.232"/>
	<path style="fill:#C67934;" d="M472.47,232.19c0,22.82-16.98,41.66-39,44.59v43.91h-50.99v-36.26v-52.24
		c0-19.59,12.52-36.26,30-42.43c4.69-1.66,9.73-2.56,14.99-2.56C452.33,187.2,472.47,207.34,472.47,232.19z M443.47,232.35
		c0-8.84-7.16-16-16-16c-8.83,0-16,7.16-16,16s7.17,16,16,16C436.31,248.35,443.47,241.19,443.47,232.35z"/>
	<path style="fill:#C67934;" d="M95.99,284.43v36.26h-51v-43.91C22.98,273.85,6,255.01,6,232.19c0-24.85,20.14-44.99,44.99-44.99
		c5.26,0,10.31,0.9,15,2.56c17.48,6.17,30,22.84,30,42.43L95.99,284.43 M66.99,232.35c0-8.84-7.16-16-16-16c-8.83,0-16,7.16-16,16
		s7.17,16,16,16C59.83,248.35,66.99,241.19,66.99,232.35"/>
	<path style="fill:#C67934;" d="M382.48,284.43v36.26H95.99v-36.26c0-13.11,10.63-23.74,23.74-23.74h239
		C371.85,260.69,382.48,271.32,382.48,284.43"/>
	<path style="fill:#855A34;" d="M141.73,260.69h-22c-13.11,0-23.74,10.63-23.74,23.74l0,0c0-13.11,10.63-23.74,23.74-23.74h21.841
		C141.624,260.69,141.677,260.69,141.73,260.69"/>
	<path style="fill:#855A34;" d="M141.572,260.69H119.73c-13.11,0-23.74,10.63-23.74,23.74v36.26h22v-36.26
		C117.99,271.373,128.535,260.775,141.572,260.69"/>
	<polyline style="fill:#F7B239;" points="415.835,348.27 412.025,369.27 409.295,384.27 384.955,384.27 384.955,348.27 
		415.835,348.27 	"/>
	<polyline style="fill:#F7B239;" points="93.525,348.27 93.525,384.27 69.185,384.27 66.455,369.27 62.635,348.27 93.525,348.27 	
		"/>
	<polyline style="fill:#A17A36;" points="93.525,348.27 62.635,348.27 66.455,369.27 93.525,369.27 93.525,348.27 	"/>
	<polyline style="fill:#A17A36;" points="415.835,348.27 384.955,348.27 384.955,369.27 412.025,369.27 415.835,348.27 	"/>
	<path style="fill:#333333;" d="M427.47,181.2c-3.036,0-6.039,0.271-8.989,0.796V124.58c0-20.06-16.32-36.38-36.38-36.38H96.37
		c-20.06,0-36.38,16.32-36.38,36.38v57.417c-2.954-0.526-5.96-0.797-9-0.797C22.874,181.2,0,204.074,0,232.19
		c0,23.67,16.429,44.115,38.99,49.565v38.935v27.58c0,3.314,2.687,6,6,6h12.637l5.655,31.074c0.52,2.853,3.004,4.926,5.903,4.926
		h24.34c3.313,0,6-2.686,6-6v-30h279.43v30c0,3.314,2.687,6,6,6h24.34c2.9,0,5.385-2.074,5.903-4.927l5.645-31.073h12.627
		c3.313,0,6-2.686,6-6v-27.58v-38.935c22.568-5.448,39-25.893,39-49.565C478.47,204.074,455.591,181.2,427.47,181.2z M96.37,100.2
		H382.1c13.443,0,24.38,10.937,24.38,24.38v61.134c-18.106,8.177-30,26.342-30,46.476v28.389c-4.958-3.697-11.103-5.889-17.75-5.889
		h-239c-6.643,0-12.784,2.19-17.74,5.886V232.19c0-20.136-11.896-38.301-30-46.476V124.58C71.99,111.137,82.927,100.2,96.37,100.2z
		 M376.48,314.69H101.99v-30.26c0-9.782,7.958-17.74,17.74-17.74h239c9.787,0,17.75,7.958,17.75,17.74L376.48,314.69L376.48,314.69z
		 M12,232.19c0-21.499,17.491-38.99,38.99-38.99c4.47,0,8.843,0.746,13.003,2.218c15.55,5.489,25.997,20.267,25.997,36.772v82.5h-39
		v-37.91c0-3.008-2.227-5.551-5.208-5.948C26.523,268.269,12,251.656,12,232.19z M87.525,378.27H74.192l-4.367-24h17.7
		C87.525,354.27,87.525,378.27,87.525,378.27z M404.287,378.27h-13.332v-24h17.691L404.287,378.27z M427.47,342.27H50.99v-15.58
		h376.48V342.27z M432.679,270.832c-2.981,0.397-5.209,2.94-5.209,5.948v37.91h-38.99v-82.5c0-16.506,10.447-31.284,26.002-36.774
		c4.154-1.47,8.523-2.216,12.987-2.216c21.505,0,39,17.491,39,38.99C466.47,251.656,451.942,268.269,432.679,270.832z"/>
	<path style="fill:#FFFFFF;" d="M360.42,123.2H184.487c-3.313,0-6-2.686-6-6s2.687-6,6-6H360.42c3.313,0,6,2.686,6,6
		S363.733,123.2,360.42,123.2z"/>
	<path style="fill:#FFFFFF;" d="M341.42,287.3h-0.005l-130-0.1c-3.313-0.002-5.998-2.691-5.995-6.005
		c0.003-3.312,2.688-5.995,6-5.995h0.005l130,0.1c3.313,0.002,5.998,2.691,5.995,6.005C347.417,284.617,344.731,287.3,341.42,287.3z
		"/>
	<path style="fill:#FFFFFF;" d="M362.418,287.204c-0.39,0-0.78-0.04-1.17-0.12c-0.38-0.08-0.76-0.19-1.12-0.34
		c-0.37-0.15-0.71-0.34-1.04-0.56c-0.33-0.21-0.63-0.46-0.91-0.74c-0.279-0.28-0.529-0.59-0.75-0.91
		c-0.21-0.33-0.399-0.68-0.55-1.04c-0.149-0.36-0.26-0.74-0.34-1.12c-0.08-0.39-0.12-0.78-0.12-1.17c0-1.58,0.64-3.13,1.76-4.25
		c0.28-0.27,0.58-0.52,0.91-0.74s0.67-0.4,1.04-0.55c0.36-0.15,0.74-0.27,1.12-0.35c1.95-0.39,4.021,0.25,5.41,1.64
		c1.12,1.12,1.76,2.67,1.76,4.25c0,0.39-0.04,0.78-0.12,1.17c-0.069,0.38-0.189,0.76-0.34,1.12c-0.15,0.36-0.33,0.71-0.55,1.04
		c-0.22,0.32-0.47,0.63-0.75,0.91C365.548,286.564,363.998,287.204,362.418,287.204z"/>
	<path style="fill:#FFFFFF;" d="M381.479,123.204c-0.391,0-0.78-0.04-1.171-0.12c-0.38-0.08-0.76-0.19-1.119-0.34
		c-0.37-0.15-0.721-0.34-1.04-0.56c-0.33-0.21-0.641-0.46-0.91-0.74c-0.28-0.28-0.53-0.58-0.75-0.91c-0.21-0.33-0.4-0.68-0.55-1.04
		s-0.261-0.74-0.341-1.12c-0.079-0.39-0.119-0.78-0.119-1.17s0.04-0.79,0.119-1.18c0.08-0.38,0.19-0.76,0.341-1.12
		c0.149-0.36,0.34-0.71,0.55-1.04c0.22-0.32,0.47-0.63,0.75-0.91c0.27-0.27,0.58-0.52,0.91-0.74c0.319-0.22,0.67-0.4,1.04-0.55
		c0.359-0.15,0.739-0.27,1.119-0.35c1.95-0.39,4.021,0.25,5.41,1.64c0.28,0.28,0.53,0.59,0.75,0.91c0.221,0.33,0.4,0.68,0.551,1.04
		c0.149,0.36,0.27,0.74,0.34,1.12c0.08,0.39,0.12,0.79,0.12,1.18c0,1.57-0.641,3.12-1.761,4.24c-0.27,0.28-0.58,0.53-0.91,0.74
		c-0.319,0.22-0.67,0.41-1.029,0.56c-0.37,0.15-0.74,0.26-1.13,0.34C382.269,123.164,381.868,123.204,381.479,123.204z"/>
	<path style="fill:#333333;" d="M142.49,202.2c-3.313,0-6-2.686-6-6v-33c0-3.314,2.687-6,6-6s6,2.686,6,6v33
		C148.49,199.514,145.804,202.2,142.49,202.2z"/>
	<path style="fill:#333333;" d="M158.99,185.7h-33c-3.313,0-6-2.686-6-6s2.687-6,6-6h33c3.313,0,6,2.686,6,6
		S162.304,185.7,158.99,185.7z"/>
	<path style="fill:#333333;" d="M335.98,202.2c-3.313,0-6-2.686-6-6v-33c0-3.314,2.687-6,6-6s6,2.686,6,6v33
		C341.98,199.514,339.294,202.2,335.98,202.2z"/>
	<path style="fill:#333333;" d="M352.48,185.7h-33c-3.313,0-6-2.686-6-6s2.687-6,6-6h33c3.313,0,6,2.686,6,6
		S355.794,185.7,352.48,185.7z"/>
	<path style="fill:#333333;" d="M239.24,202.2c-3.313,0-6-2.686-6-6v-33c0-3.314,2.687-6,6-6s6,2.686,6,6v33
		C245.24,199.514,242.554,202.2,239.24,202.2z"/>
	<path style="fill:#333333;" d="M255.73,185.7h-32.99c-3.313,0-6-2.686-6-6s2.687-6,6-6h32.99c3.313,0,6,2.686,6,6
		S259.044,185.7,255.73,185.7z"/>
	<path style="fill:#333333;" d="M50.99,254.35c-12.131,0-22-9.869-22-22c0-12.131,9.869-22,22-22s22,9.869,22,22
		C72.99,244.481,63.121,254.35,50.99,254.35z M50.99,222.35c-5.514,0-10,4.486-10,10s4.486,10,10,10s10-4.486,10-10
		S56.504,222.35,50.99,222.35z"/>
	<path style="fill:#333333;" d="M427.47,254.35c-12.131,0-22-9.869-22-22c0-12.131,9.869-22,22-22s22,9.869,22,22
		C449.47,244.481,439.601,254.35,427.47,254.35z M427.47,222.35c-5.514,0-10,4.486-10,10s4.486,10,10,10s10-4.486,10-10
		S432.983,222.35,427.47,222.35z"/>
</g>
<g>
</g>
<g>
</g>
<g>
</g>
<g>
</g>
<g>
</g>
<g>
</g>
<g>
</g>
<g>
</g>
<g>
</g>
<g>
</g>
<g>
</g>
<g>
</g>
<g>
</g>
<g>
</g>
<g>
</g>
</svg>
